<?xml version="1.0" standalone="no"?>
<!DOCTYPE svg PUBLIC "-//W3C//DTD SVG 20010904//EN"
 "http://www.w3.org/TR/2001/REC-SVG-20010904/DTD/svg10.dtd">
<svg version="1.0" xmlns="http://www.w3.org/2000/svg"
 width="526.000000pt" height="526.000000pt" viewBox="0 0 526.000000 526.000000"
 preserveAspectRatio="xMidYMid meet">
<metadata>
Created by potrace 1.11, written by Peter Selinger 2001-2013
</metadata>
<g transform="translate(0.000000,526.000000) scale(0.100000,-0.100000)"
fill="#000000" stroke="none">
<path d="M1460 5226 c-8 -7 -71 -51 -140 -98 -69 -46 -159 -108 -200 -136 -41
-29 -82 -56 -90 -62 -8 -6 -71 -49 -140 -96 -69 -47 -150 -102 -180 -122 -30
-20 -57 -39 -60 -42 -12 -13 -101 -70 -109 -70 -5 0 -11 -3 -13 -7 -1 -5 -25
-23 -53 -42 -27 -19 -84 -57 -125 -85 -41 -28 -77 -54 -80 -57 -3 -3 -10 -8
-15 -10 -6 -2 -64 -41 -130 -87 l-120 -83 -3 -903 -2 -903 43 -16 c185 -67
241 -87 248 -87 4 0 20 -5 36 -12 15 -6 30 -12 33 -13 3 -1 18 -7 33 -13 16
-7 31 -12 34 -12 7 0 62 -20 283 -100 63 -23 120 -43 125 -44 6 -2 18 -6 27
-10 9 -4 22 -9 30 -10 7 -2 20 -6 28 -9 8 -3 47 -16 85 -30 39 -14 97 -34 130
-46 l60 -22 -1 -629 0 -630 719 -360 719 -360 106 52 c59 29 109 56 110 60 2
4 8 8 14 8 15 0 142 63 146 72 2 5 8 8 14 8 14 0 462 223 466 233 2 4 8 7 14
7 9 0 232 108 288 140 14 8 27 15 30 15 8 1 145 69 150 75 3 3 26 15 53 27 26
13 47 28 48 35 0 7 1 291 2 630 2 614 2 618 -18 612 -11 -4 -58 -21 -105 -39
-47 -18 -148 -56 -225 -85 -77 -28 -179 -67 -226 -85 -47 -19 -99 -37 -115
-41 -16 -4 -33 -10 -39 -14 -5 -4 -21 -11 -35 -15 -14 -4 -38 -13 -55 -20 -75
-32 -191 -75 -202 -75 -6 0 -24 -6 -40 -14 -31 -16 -45 -21 -244 -95 l-136
-51 -69 26 c-38 14 -96 36 -129 48 -33 13 -94 35 -135 50 -41 15 -84 32 -95
36 -31 14 -368 141 -385 145 -41 11 -606 228 -615 236 -7 7 -10 316 -11 885
l-1 874 189 128 c105 70 199 133 211 141 12 8 47 31 77 50 30 20 59 39 65 44
5 4 46 31 90 60 44 28 86 58 93 65 7 6 17 12 22 12 5 0 15 6 22 13 13 12 156
109 171 115 4 2 47 30 95 63 48 32 96 65 106 72 10 6 31 22 46 35 15 12 31 22
35 22 9 0 99 62 103 72 2 4 8 8 14 8 6 0 32 16 59 34 47 34 48 35 71 17 13
-10 201 -136 418 -281 217 -145 397 -267 398 -272 2 -4 8 -8 12 -8 5 0 137
-86 293 -190 l284 -190 0 -875 c0 -481 2 -877 4 -879 2 -2 121 37 264 88 258
92 374 133 470 167 28 9 122 43 210 74 88 31 165 58 170 59 6 2 25 9 42 16
l33 12 -3 904 -2 903 -165 112 c-91 61 -266 180 -390 264 -124 84 -287 194
-363 246 -75 52 -145 99 -155 104 -9 6 -19 12 -22 15 -3 3 -68 48 -145 100
-77 51 -161 109 -187 127 -52 36 -45 37 -153 -12 -33 -14 -73 -33 -90 -40 -16
-7 -93 -41 -170 -75 -146 -64 -181 -80 -278 -124 -32 -14 -59 -26 -62 -26 -2
0 -32 -13 -67 -29 -299 -136 -391 -173 -413 -162 -45 22 -218 101 -221 101 -4
0 -74 32 -202 91 -46 22 -86 39 -88 39 -2 0 -42 18 -89 40 -47 22 -87 40 -89
40 -2 0 -43 18 -92 41 -80 37 -131 60 -144 64 -3 1 -32 14 -65 29 -75 36 -122
56 -127 56 -2 0 -10 -6 -18 -14z"/>
</g>
</svg>
