<svg xmlns="http://www.w3.org/2000/svg" width="26.283" height="26.283" viewBox="0 0 26.283 26.283"><path d="M23.467,32H2.816A2.816,2.816,0,0,0,0,34.816V55.467a2.816,2.816,0,0,0,2.816,2.816H23.467a2.816,2.816,0,0,0,2.816-2.816V34.816A2.816,2.816,0,0,0,23.467,32Zm0,23.467H2.816V34.816H23.467Zm-2.1-14.181L11.238,51.33a.7.7,0,0,1-1,0L4.916,45.957a.7.7,0,0,1,0-1l1.333-1.322a.7.7,0,0,1,1,0l3.508,3.536,8.293-8.226a.7.7,0,0,1,1,0l1.322,1.333a.7.7,0,0,1,0,1Z" transform="translate(0 -32)" fill="#270949"/></svg>