<svg xmlns="http://www.w3.org/2000/svg" width="23" height="17.971" viewBox="0 0 23 17.971"><path d="M0,61.008V60.29a1.078,1.078,0,0,1,1.078-1.078H17.25V57.055a1.079,1.079,0,0,1,1.84-.762l3.594,3.594a1.078,1.078,0,0,1,0,1.525L19.09,65.005a1.079,1.079,0,0,1-1.84-.762V62.087H1.078A1.078,1.078,0,0,1,0,61.008Zm21.922,6.828H5.75V65.68a1.079,1.079,0,0,0-1.84-.762L.316,68.512a1.078,1.078,0,0,0,0,1.525L3.91,73.63a1.079,1.079,0,0,0,1.84-.762V70.712H21.922A1.078,1.078,0,0,0,23,69.633v-.719A1.078,1.078,0,0,0,21.922,67.837Z" transform="translate(0 -55.976)" fill="#270949"/></svg>