<svg xmlns="http://www.w3.org/2000/svg" width="22.414" height="22.414" viewBox="0 0 22.414 22.414">
  <path id="Info" d="M19.207,8A11.207,11.207,0,1,0,30.414,19.207,11.209,11.209,0,0,0,19.207,8Zm0,4.971a1.9,1.9,0,1,1-1.9,1.9A1.9,1.9,0,0,1,19.207,12.971Zm2.531,11.478a.542.542,0,0,1-.542.542H17.219a.542.542,0,0,1-.542-.542V23.364a.542.542,0,0,1,.542-.542h.542V19.93h-.542a.542.542,0,0,1-.542-.542V18.3a.542.542,0,0,1,.542-.542h2.892a.542.542,0,0,1,.542.542v4.519H21.2a.542.542,0,0,1,.542.542Z" transform="translate(-8 -8)" fill="#270949"/>
</svg>
