<svg xmlns="http://www.w3.org/2000/svg" width="38.446" height="38.45" viewBox="0 0 38.446 38.45"><path d="M27.285,13.8a9.513,9.513,0,0,0-13.484,0,9.513,9.513,0,0,0,0,13.484,9.513,9.513,0,0,0,13.484,0A9.532,9.532,0,0,0,27.285,13.8Zm-.431,13.053a8.918,8.918,0,1,1,2.617-6.311A8.874,8.874,0,0,1,26.854,26.854Z" transform="translate(-7.922 -7.922)" fill="#a5a5a5"/><path d="M39.173,36.618,23.75,21.133a12.611,12.611,0,1,0-10.128,5.11,12.375,12.375,0,0,0,7.511-2.494L36.587,39.2a.978.978,0,0,0,.616.246.993.993,0,0,0,.646-.246l1.293-1.293A.869.869,0,0,0,39.173,36.618ZM5.125,22.118a12.006,12.006,0,1,1,16.993,0,11.868,11.868,0,0,1-8.5,3.509A12.05,12.05,0,0,1,5.125,22.118ZM38.742,37.48l-1.293,1.293a.3.3,0,0,1-.431,0L21.626,23.38a11.247,11.247,0,0,0,.924-.831,11.844,11.844,0,0,0,.831-.924L38.742,37.049A.3.3,0,0,1,38.742,37.48Z" transform="translate(-1 -1)" fill="#a5a5a5"/></svg>